<svg xmlns="http://www.w3.org/2000/svg" width="58.252" height="88.992" fill="none"><path fill="#0ACF83" d="M14.55 88.99c8.04 0 14.56-6.64 14.56-14.83V59.33H14.55C6.52 59.33 0 65.98 0 74.16c0 8.19 6.52 14.83 14.55 14.83Z"/><path fill="#A259FF" d="M0 44.49c0-8.18 6.52-14.83 14.55-14.83h14.56v29.67H14.55C6.52 59.32 0 52.68 0 44.49Z"/><path fill="#F24E1E" d="M0 14.82C0 6.64 6.52 0 14.55 0h14.56v29.66H14.55C6.52 29.66 0 23.01 0 14.82Z"/><path fill="#FF7262" d="M29.13 0h14.56c8.04 0 14.56 6.64 14.56 14.82 0 8.19-6.52 14.83-14.56 14.83H29.13V0Z"/><path fill="#1ABCFE" d="M58.25 44.49c0 8.19-6.52 14.83-14.56 14.83-8.04 0-14.56-6.64-14.56-14.83 0-8.18 6.52-14.83 14.56-14.83 8.04 0 14.56 6.65 14.56 14.83Z"/></svg>