<svg xmlns="http://www.w3.org/2000/svg" width="89.209" height="88.572" fill="none" viewBox="0 0 89.21 88.572"><defs><radialGradient id="a" cx="0" cy="0" r="1" gradientTransform="matrix(62.1406 0 0 61.2673 30.668 21.944)" gradientUnits="userSpaceOnUse"><stop stop-color="#442F55" stop-opacity=".98"/><stop offset="1" stop-color="#12002C"/></radialGradient></defs><path fill="url(#a)" d="M3.71 3.78h81.76v81H3.71v-81Z"/><path fill="#D8A1FF" d="M3.71 3.78h81.76v81H3.71v-81ZM0 88.57h89.2V0H0v88.57Zm63.11-45.88c1.89 0 2.57 0 2.75-.07 0-.28.07-.46.07-.64 0-2.04-.97-5.82-4.82-5.82-3.58 0-5.1 3.18-5.47 6.55h7.47v-.02Zm-7.54 5.18c.07 5.12 2.45 8.55 8.11 8.55 2.19 0 4.09-.31 6.05-1.16.27-.11.45-.07.45.27v4.73c0 .38-.11.57-.37.77-1.97.98-4.44 1.43-7.47 1.43-9.81 0-13.49-7.38-13.49-15.59 0-8.93 4.54-16.24 12.52-16.24 8.11 0 10.94 6.93 10.94 12.57 0 1.82-.11 3.29-.31 4.02-.07.31-.18.42-.48.49-.75.11-2.93.27-6.2.27h-9.73v-.11h-.02Zm-19.94-3.85c-1.03-4.2-3.57-13.36-4.5-17.79h-.07c-.79 4.42-2.82 11.91-4.34 17.79h8.91ZM25.2 50.15l-2.93 11.31c-.07.31-.18.42-.55.42h-5.49c-.37 0-.44-.11-.37-.56l10.55-37.58c.18-.68.31-1.22.38-3.12 0-.27.11-.38.3-.38h7.81c.27 0 .38.08.45.38l11.8 40.77c.08.31 0 .49-.3.49h-6.13c-.3 0-.48-.11-.55-.38l-3.05-11.35H25.2Z"/></svg>