<svg xmlns="http://www.w3.org/2000/svg" width="89.209" height="88.572" fill="none" viewBox="0 0 89.21 88.572"><defs><radialGradient id="a" cx="0" cy="0" r="1" gradientTransform="matrix(62.1406 0 0 61.2673 30.67 21.96)" gradientUnits="userSpaceOnUse"><stop stop-color="#423325" stop-opacity=".98"/><stop offset="1" stop-color="#1C0A00"/></radialGradient></defs><path fill="url(#a)" d="M3.71 3.78h81.76v81H3.71v-81Z"/><path fill="#FF7F18" d="M3.71 3.78h81.76v81H3.71v-81ZM0 88.57h89.2V0H0v88.57Zm58.43-56.99c0-.32.1-.46.44-.46h5.84c.31 0 .45.11.45.46v29.86c0 .31-.07.46-.45.46h-5.77c-.37 0-.48-.18-.48-.49V31.58h-.03Zm-.41-8.61c0-2.42 1.67-3.86 3.78-3.86 2.27 0 3.79 1.55 3.79 3.86 0 2.49-1.59 3.86-3.86 3.86-2.14.01-3.71-1.35-3.71-3.86ZM41.3 44.02c-1.04-4.2-3.51-13.36-4.44-17.79h-.07c-.78 4.42-2.75 11.91-4.3 17.79h8.81Zm-10.33 6.13L28.04 61.5c-.07.31-.18.38-.55.38h-5.47c-.37 0-.45-.11-.37-.56L32.2 23.7c.18-.68.31-1.29.38-3.15 0-.27.1-.38.3-.38h7.81c.27 0 .37.07.44.38l11.83 40.84c.07.31 0 .49-.3.49h-6.17c-.3 0-.48-.07-.55-.34l-3.06-11.39H30.97Z"/></svg>