<svg xmlns="http://www.w3.org/2000/svg" width="89.073" height="88.412" fill="none"><defs><radialGradient id="a" cx="0" cy="0" r="1" gradientTransform="matrix(62.0565 0 0 61.1565 30.617 21.92)" gradientUnits="userSpaceOnUse"><stop stop-color="#34364E" stop-opacity=".98"/><stop offset="1" stop-color="#0C0824"/></radialGradient></defs><path fill="url(#a)" d="M3.71 3.77h81.66v80.86H3.71V3.77Z"/><path fill="#31C5F0" d="M3.71 3.77h81.66v80.86H3.71V3.77ZM0 88.41h89.07V0H0v88.41Zm60.06-52.13c-2.93 0-3.93 1.51-3.93 2.76 0 1.36.66 2.31 4.61 4.38 5.82 2.87 7.64 5.63 7.64 9.67 0 6.05-4.53 9.3-10.66 9.3-3.23 0-6.01-.67-7.6-1.62-.27-.11-.3-.31-.3-.6v-5.58c0-.38.17-.49.44-.3 2.34 1.54 5.02 2.23 7.46 2.23 2.93 0 4.16-1.25 4.16-2.94 0-1.37-.85-2.57-4.6-4.55-5.27-2.56-7.46-5.16-7.46-9.52 0-4.87 3.74-8.92 10.24-8.92 3.2 0 5.43.49 6.64 1.06.31.18.38.49.38.76v5.18c0 .31-.18.49-.56.38-1.64-1.06-4.05-1.69-6.46-1.69Zm-31.92 4.49c.86.07 1.52.07 3 .07 4.34 0 8.43-1.54 8.43-7.56 0-4.79-2.93-7.21-7.87-7.21-1.48 0-2.89.07-3.57.11l.01 14.59Zm-6.62-20.06c0-.27.52-.46.82-.46 2.38-.1 5.91-.18 9.57-.18 10.28 0 14.3 5.74 14.3 13.07 0 9.59-6.84 13.71-15.23 13.71-1.41 0-1.89-.07-2.89-.07v14.5c0 .31-.11.46-.44.46h-5.68c-.3 0-.45-.11-.45-.46V20.71Z"/></svg>