<svg xmlns="http://www.w3.org/2000/svg" width="40.667" height="40.559" fill="none"><path fill="#070707" d="M34.53.25H6.13C2.88.25.25 2.88.25 6.11v28.33c0 3.23 2.63 5.86 5.88 5.86h28.4c3.24 0 5.88-2.63 5.88-5.86V6.11c0-3.23-2.64-5.86-5.88-5.86Zm3.53 34.19c0 1.94-1.59 3.52-3.53 3.52H6.13c-1.95 0-3.53-1.58-3.53-3.52V6.11c0-1.94 1.58-3.52 3.53-3.52h28.4c1.94 0 3.53 1.58 3.53 3.52v28.33Z"/><path stroke="#070707" stroke-width=".5" d="M6.13.25C2.88.25.25 2.88.25 6.11v28.33c0 3.23 2.63 5.86 5.88 5.86h28.4c3.24 0 5.88-2.63 5.88-5.86V6.11c0-3.23-2.64-5.86-5.88-5.86H6.13Zm28.4 37.71H6.13c-1.95 0-3.53-1.58-3.53-3.52V6.11c0-1.94 1.58-3.52 3.53-3.52h28.4c1.94 0 3.53 1.58 3.53 3.52v28.33c0 1.94-1.59 3.52-3.53 3.52Z"/><path fill="#070707" d="M31.37 29.28h-4.31v-7.2c0-.5-.04-.99-.16-1.47-.52-2-2.74-1.88-3.63-.94-.44.48-.73 1.02-.74 1.68-.01.16-.02.32-.02.48v7.45h-4.3V15.91h4.3v1.8c.01 0 .02.01.04.01l.09-.12c.43-.6.92-1.13 1.58-1.49.74-.4 1.53-.54 2.36-.51.89.02 1.74.23 2.51.71.98.61 1.58 1.52 1.93 2.6.27.84.36 1.72.36 2.6v7.61c0 .05 0 .1-.01.16ZM15.58 29.29H11.3V15.91h4.28v13.38ZM13.62 9.26c1.35 0 2.3.96 2.31 2.32 0 1.34-.97 2.3-2.34 2.3-1.34 0-2.3-.96-2.3-2.31s.97-2.31 2.33-2.31Z"/></svg>