<svg xmlns="http://www.w3.org/2000/svg" width="39.108" height="39.998" fill="none"><path fill="#070707" d="M19.55 0C8.78 0 0 8.98 0 19.99c0 11.02 8.78 20 19.55 20 10.77 0 19.55-8.98 19.55-20C39.1 8.98 30.32 0 19.55 0Zm0 3.07c3.93 0 7.52 1.4 10.35 3.73-1.44 1.81-4.08 4.32-8.51 5.96-2.4-4.45-4.42-7.29-5.82-9.18 1.27-.32 2.61-.51 3.98-.51Zm-6.96 1.59c1.18 1.55 3.3 4.46 5.83 9.02-6.5 1.74-12.36 1.85-14.81 1.78 1.31-4.81 4.62-8.74 8.98-10.8Zm19.47 4.28a17.1 17.1 0 0 1 4.03 11.05c0 .64-.03 1.25-.1 1.87-.54-.08-.95-.15-1.64-.2a38.46 38.46 0 0 0-8.76.32c-.87-2.31-1.83-4.46-2.82-6.47 4.65-1.81 7.59-4.5 9.29-6.57Zm-12.21 7.53c.95 1.9 1.87 3.94 2.73 6.13-3.96 1.2-7.56 3.94-10.33 6.49a54.024 54.024 0 0 0-3.59 3.64C5.19 29.63 2.99 25.09 2.99 20c0-.51.04-.99.08-1.48 2.14.09 9 .16 16.78-2.05Zm9.96 8.17c2.31-.09 4.13.07 5.58.24a16.799 16.799 0 0 1-6.52 9.11c-.5-3.16-1.27-6.2-2.2-9.06 1.08-.15 2.14-.24 3.14-.29Zm-6.15.84c1.07 3.17 1.92 6.54 2.39 10.08-2 .87-4.19 1.36-6.51 1.36-3.09 0-5.96-.88-8.43-2.37.83-.91 1.87-2.02 3.15-3.18 2.66-2.44 6.13-4.93 9.4-5.89Z"/></svg>