<svg xmlns="http://www.w3.org/2000/svg" width="39.108" height="39.998" fill="none"><path fill="#070707" d="M11.35 0C5.1 0 0 5.22 0 11.62V28.4c0 6.38 5.1 11.59 11.35 11.59h16.42c6.24 0 11.33-5.22 11.33-11.61V11.61C39.1 5.21 34.01 0 27.76 0H11.35Zm0 3.08h16.41c4.62 0 8.33 3.8 8.33 8.54v16.77c0 4.74-3.71 8.54-8.32 8.54H11.35c-4.63 0-8.35-3.8-8.35-8.52V11.63c.01-4.75 3.73-8.55 8.35-8.55Zm20.24 3.08c-.83 0-1.5.68-1.5 1.53 0 .86.67 1.54 1.5 1.54.84 0 1.51-.68 1.51-1.54 0-.85-.67-1.53-1.51-1.53ZM19.56 9.23C13.77 9.23 9.03 14.08 9.03 20s4.74 10.76 10.53 10.76c5.79 0 10.53-4.84 10.53-10.76S25.35 9.23 19.56 9.23Zm0 3.08c4.17 0 7.52 3.42 7.52 7.69 0 4.27-3.35 7.69-7.52 7.69-4.18 0-7.52-3.42-7.52-7.69 0-4.27 3.34-7.69 7.52-7.69Z"/></svg>