<svg xmlns="http://www.w3.org/2000/svg" width="40.111" height="40" fill="none"><defs><clipPath id="a"><path fill="#fff" fill-opacity="0" d="M0 0h40.111v40H0z"/></clipPath></defs><path fill="none" d="M0 0h40.111v40H0z"/><g clip-path="url(#a)"><path fill="#070707" d="M34.23 0H5.87C2.63 0 0 2.62 0 5.85v28.29C0 37.37 2.63 40 5.87 40h28.36c3.24 0 5.88-2.63 5.88-5.86V5.85c0-3.23-2.64-5.85-5.88-5.85Zm3.53 34.14c0 1.93-1.59 3.51-3.53 3.51H5.87c-1.94 0-3.52-1.58-3.52-3.51V5.85c0-1.93 1.58-3.51 3.52-3.51h28.36c1.94 0 3.53 1.58 3.53 3.51v28.29Z"/><path stroke="#070707" stroke-width=".5" d="M5.87 0C2.63 0 0 2.62 0 5.85v28.29C0 37.37 2.63 40 5.87 40h28.36c3.24 0 5.88-2.63 5.88-5.86V5.85c0-3.23-2.64-5.85-5.88-5.85H5.87Zm28.36 37.65H5.87c-1.94 0-3.52-1.58-3.52-3.51V5.85c0-1.93 1.58-3.51 3.52-3.51h28.36c1.94 0 3.53 1.58 3.53 3.51v28.29c0 1.93-1.59 3.51-3.53 3.51Z"/><path fill="#070707" d="M18.88 16.48c0-2.59-2.11-4.69-4.71-4.69H7.12V28.2h7.05c2.6 0 4.71-2.1 4.71-4.69 0-1.4-.62-2.66-1.6-3.51.98-.86 1.6-2.12 1.6-3.52Zm-2.35 7.03c0 1.29-1.06 2.34-2.36 2.34h-4.7v-4.68h4.7c1.3 0 2.36 1.05 2.36 2.34Zm-7.06-4.69v-4.68h4.7c1.3 0 2.36 1.05 2.36 2.34 0 1.29-1.06 2.34-2.36 2.34h-4.7Z"/><path stroke="#070707" stroke-width=".5" d="M14.17 11.79H7.12V28.2h7.05c2.6 0 4.71-2.1 4.71-4.69 0-1.4-.62-2.66-1.6-3.51.98-.86 1.6-2.12 1.6-3.52 0-2.59-2.11-4.69-4.71-4.69Zm0 14.06h-4.7v-4.68h4.7c1.3 0 2.36 1.05 2.36 2.34 0 1.29-1.06 2.34-2.36 2.34Zm-4.7-11.71h4.7c1.3 0 2.36 1.05 2.36 2.34 0 1.29-1.06 2.34-2.36 2.34h-4.7v-4.68Z"/><path fill="#070707" d="M27.1 16.48c-3.24 0-5.87 2.63-5.87 5.86 0 3.23 2.63 5.86 5.87 5.86a5.9 5.9 0 0 0 5.09-2.93l-2.03-1.17a3.547 3.547 0 0 1-3.06 1.75c-1.53 0-2.84-.98-3.32-2.34h9.2v-1.17c0-3.23-2.64-5.86-5.88-5.86Zm-3.32 4.69a3.52 3.52 0 0 1 3.32-2.35c1.53 0 2.84.98 3.33 2.35h-6.65Z"/><path stroke="#070707" stroke-width=".5" d="M21.23 22.34c0 3.23 2.63 5.86 5.87 5.86a5.9 5.9 0 0 0 5.09-2.93l-2.03-1.17a3.547 3.547 0 0 1-3.06 1.75c-1.53 0-2.84-.98-3.32-2.34h9.2v-1.17c0-3.23-2.64-5.86-5.88-5.86-3.24 0-5.87 2.63-5.87 5.86Zm5.87-3.52c1.53 0 2.84.98 3.33 2.35h-6.65a3.52 3.52 0 0 1 3.32-2.35Z"/><path fill="#070707" d="M22.4 11.79h9.4v2.35h-9.4v-2.35Z"/><path stroke="#070707" stroke-width=".5" d="M31.8 11.79v2.35h-9.4v-2.35h9.4Z"/></g></svg>